<svg width="17" height="21" viewBox="0 0 17 21" fill="none" xmlns="http://www.w3.org/2000/svg">
<path fill-rule="evenodd" clip-rule="evenodd" d="M7.78975 20.601C7.81995 20.6185 7.84369 20.6321 7.8605 20.6415L7.88843 20.6571C8.1113 20.7794 8.38776 20.7785 8.61084 20.6575L8.6395 20.6415C8.65631 20.6321 8.68005 20.6185 8.71025 20.601C8.77066 20.566 8.85697 20.515 8.9655 20.4482C9.18246 20.3146 9.48875 20.1176 9.85461 19.8591C10.5851 19.3431 11.5597 18.5774 12.5365 17.5773C14.4807 15.5868 16.5 12.5962 16.5 8.75C16.5 4.19365 12.8063 0.5 8.25 0.5C3.69365 0.5 0 4.19365 0 8.75C0 12.5962 2.01932 15.5868 3.96346 17.5773C4.94025 18.5774 5.91491 19.3431 6.64539 19.8591C7.01125 20.1176 7.31754 20.3146 7.5345 20.4482C7.64303 20.515 7.72934 20.566 7.78975 20.601ZM8.25 11.75C9.90685 11.75 11.25 10.4069 11.25 8.75C11.25 7.09315 9.90685 5.75 8.25 5.75C6.59315 5.75 5.25 7.09315 5.25 8.75C5.25 10.4069 6.59315 11.75 8.25 11.75Z" fill="#322F74"/>
</svg>
